<?xml version="1.0" encoding="UTF-8" standalone="no"?>
<svg
   height="24"
   viewBox="0 0 24 24"
   width="24"
   version="1.1"
   id="svg1"
   sodipodi:docname="importIcon.svg"
   inkscape:version="1.4.2 (f4327f4, 2025-05-13)"
   xmlns:inkscape="http://www.inkscape.org/namespaces/inkscape"
   xmlns:sodipodi="http://sodipodi.sourceforge.net/DTD/sodipodi-0.dtd"
   xmlns="http://www.w3.org/2000/svg"
   xmlns:svg="http://www.w3.org/2000/svg">
  <defs
     id="defs1" />
  <sodipodi:namedview
     id="namedview1"
     pagecolor="#ffffff"
     bordercolor="#000000"
     borderopacity="0.25"
     inkscape:showpageshadow="2"
     inkscape:pageopacity="0.0"
     inkscape:pagecheckerboard="0"
     inkscape:deskcolor="#d1d1d1"
     showgrid="false"
     inkscape:zoom="33.625"
     inkscape:cx="12"
     inkscape:cy="12"
     inkscape:window-width="1920"
     inkscape:window-height="1009"
     inkscape:window-x="-8"
     inkscape:window-y="-8"
     inkscape:window-maximized="1"
     inkscape:current-layer="svg1" />
  <path
     d="M2,4H6V2H2A2,2 0 0,0 0,4V8H2V4M22,2H18V4H22V8H24V4A2,2 0 0,0 22,2M2,16H0V20A2,2 0 0,0 2,22H6V20H2V16M22,20H18V22H22A2,2 0 0,0 24,20V16H22V20M4,8V16A2,2 0 0,0 6,18H18A2,2 0 0,0 20,16V8A2,2 0 0,0 18,6H6A2,2 0 0,0 4,8M6,16V12H18V16H6M18,8V10H6V8H18Z"
     id="path1" />
  <rect
     style="fill:#000000;stroke-width:2.64002"
     id="rect1"
     width="13.680298"
     height="9.2788105"
     x="5.0557623"
     y="6.7806692" />
  <rect
     style="fill:#000000"
     id="rect1-9"
     width="5.234201"
     height="3.4795539"
     x="14.263941"
     y="7.4832716" />
  <rect
     style="fill:#ffffff"
     id="rect1-9-9"
     width="5.234201"
     height="3.4795539"
     x="9.3159847"
     y="6.4460964" />
  <rect
     style="fill:#ffffff;stroke-width:0.947485"
     id="rect1-9-9-7"
     width="4.698885"
     height="3.4795539"
     x="14.817843"
     y="10.133829" />
  <rect
     style="fill:#ffffff"
     id="rect1-9-9-7-1"
     width="5.234201"
     height="3.4795539"
     x="9.3197021"
     y="13.866171" />
  <rect
     style="fill:#ffffff;stroke-width:0.974096"
     id="rect1-9-9-7-1-0"
     width="4.9665432"
     height="3.4795539"
     x="4.2118959"
     y="10.04461" />
</svg>
